<svg xmlns="http://www.w3.org/2000/svg" viewBox="0 0 58.65 55.88"><defs><style>.cls-1{fill:#00c000;}.cls-2{fill:#fff;}</style></defs><path class="cls-1" d="M58.65,23.8C58.65,10.68,45.49,0,29.32,0S0,10.68,0,23.8C0,35.56,10.43,45.41,24.52,47.28c1,.2,2.26.63,2.59,1.44a6.08,6.08,0,0,1,.09,2.65s-.34,2.07-.42,2.51c-.12.74-.58,2.9,2.54,1.58s16.89-9.94,23-17h0c4.25-4.66,6.29-9.39,6.29-14.64"/><path class="cls-2" d="M23.37,17.46H21.31a.56.56,0,0,0-.57.57V30.8a.56.56,0,0,0,.57.57h2.06a.57.57,0,0,0,.57-.57V18a.57.57,0,0,0-.57-.57"/><path class="cls-2" d="M37.52,17.46H35.47a.56.56,0,0,0-.57.57v7.59L29,17.71l0-.06h0l0,0h0l0,0h0l0,0h0l0,0H26.51a.56.56,0,0,0-.57.57V30.8a.56.56,0,0,0,.57.57h2.06a.57.57,0,0,0,.57-.57V23.22L35,31.13a.47.47,0,0,0,.14.14h0l0,0h.13a.39.39,0,0,0,.15,0h2.05a.57.57,0,0,0,.58-.57V18a.57.57,0,0,0-.58-.57"/><path class="cls-2" d="M18.41,28.17H12.82V18a.57.57,0,0,0-.57-.57H10.19a.57.57,0,0,0-.57.57V30.8h0a.56.56,0,0,0,.16.4h0a.59.59,0,0,0,.4.16h8.22A.57.57,0,0,0,19,30.8V28.75a.58.58,0,0,0-.57-.58"/><path class="cls-2" d="M48.88,20.66a.57.57,0,0,0,.57-.58V18a.56.56,0,0,0-.57-.57H40.67a.56.56,0,0,0-.4.16h0a.62.62,0,0,0-.16.4h0V30.8h0a.6.6,0,0,0,.16.4h0a.56.56,0,0,0,.4.16h8.21a.56.56,0,0,0,.57-.57V28.75a.57.57,0,0,0-.57-.58H43.29V26h5.59a.56.56,0,0,0,.57-.57V23.39a.56.56,0,0,0-.57-.57H43.29V20.66Z"/></svg>