<svg xmlns="http://www.w3.org/2000/svg" viewBox="0 0 76.19 21.62"><defs><style>.cls-1{fill:#af6583;}.cls-2{fill:#fff;}.cls-3{fill:#6e609d;}.cls-4{fill:#d15e6f;}.cls-5{fill:#df5541;}</style></defs><g id="レイヤー_2" data-name="レイヤー 2"><g id="object"><path class="cls-1" d="M53.5,5.07l-.28.35V16.21l.28.34,9,1.82.42-.34V3.6l-.42-.35ZM62.23,4V17.6l-8.31-1.68V5.7Z"/><path class="cls-2" d="M73,18h-.47v-.12h1.06V18h-.46v1.35H73Z"/><path class="cls-2" d="M74,19.34V17.87h.21l.54,1.28.56-1.28h.19v1.47h-.13V18h0l-.55,1.36h-.13L74.1,18h0v1.35Z"/><path class="cls-2" d="M37.75,8.25V7H36.43l-2.59,7.33h1.57l1-2.84h1.34V10.35h-.92l.72-2.09Z"/><path class="cls-2" d="M39,7h-.57V8.25c.66,0,1.45,0,1.09,1a1.51,1.51,0,0,1-1.09,1v1.21a3.69,3.69,0,0,0,2.77-2.16C41.87,7.43,40.64,7,39,7Z"/><path class="cls-2" d="M1.82,14.45,7.06,7.13H8.93v7.32H7.37l0-1.55h-3l-1.1,1.55ZM7.4,11.68l.06-3.12h0L5.25,11.68Z"/><path class="cls-2" d="M28.32,14.45H26.75l2.59-7.32h1.58Z"/><path class="cls-2" d="M44.06,14.45l2.6-7.32h1.57l-2.16,6.1h3.46l-.43,1.22Z"/><path class="cls-2" d="M56.78,7.13h4.91l-.43,1.21H57.92l-.6,1.72h3.12L60,11.28H56.89l-.7,2h3.45l-.43,1.22h-5Z"/><path class="cls-2" d="M67.36,14.45H65.68l3.92-3.79L68.44,7.13h1.94L71,9.61l2.47-2.48h1.68l-3.66,3.52,1.21,3.8H70.75l-.66-2.76Z"/><path class="cls-2" d="M18.62,14.45l-.74-6.09,0,0L15.7,14.45H14.23l2.59-7.32h2.34l.75,5.76,0,0,2-5.74h1.47l-2.59,7.32Z"/><path class="cls-3" d="M.35,5.07,0,5.42V16.21l.35.35H11.14l.35-.35V5.42l-.35-.35Zm10.44.7V15.86H.7V5.77Z"/><path class="cls-4" d="M25.69,1.51l-.5.31v18l.5.31,7.19-3.59.19-.31V5.42l-.19-.32ZM32.38,16l-6.49,3.25V2.38l6.49,3.25Z"/><path class="cls-3" d="M75.84,5.07H65l-.34.35V16.21l.34.35h10.8l.35-.35V5.42Zm-.35.7V15.86H65.39V5.77Z"/><path class="cls-4" d="M43.31,5.1l-.2.32V16.21l.2.31,7.18,3.59L51,19.8v-18l-.51-.31Zm7-2.72V19.24L43.81,16V5.63Z"/><rect class="cls-5" x="37.75" width="0.7" height="21.62"/><polygon class="cls-1" points="22.27 10.44 22.27 15.93 13.96 17.6 13.96 4.03 22.27 5.7 22.27 7.13 22.97 7.13 22.97 5.42 22.69 5.08 13.68 3.26 13.26 3.6 13.26 18.03 13.68 18.37 22.69 16.55 22.97 16.21 22.97 8.46 22.27 10.44"/></g></g></svg>