<svg xmlns="http://www.w3.org/2000/svg" viewBox="0 0 168.53 47.83"><defs><style>.cls-1{fill:#b9658d;}.cls-2{fill:#fff;}.cls-3{fill:#6e60a7;}.cls-4{fill:#db5e6f;}.cls-5{fill:#e95541;}</style></defs><g id="レイヤー_2" data-name="レイヤー 2"><g id="アーカイヴ"><path class="cls-1" d="M118.35,11.22l-.62.76V35.86l.62.76,19.93,4,.93-.76V8l-.93-.76ZM137.66,8.9v30l-18.39-3.7V12.61Z"/><path class="cls-2" d="M161.37,39.8h-1v-.27h2.34v.27h-1v3h-.28Z"/><path class="cls-2" d="M163.61,42.77V39.53h.46l1.2,2.83,1.22-2.83h.44v3.24h-.29v-3h0l-1.22,3h-.28l-1.22-3h0v3Z"/><path class="cls-2" d="M83.51,18.24V15.56H80.59l-5.74,16.2h3.48l2.22-6.27h3v-2.6l-2.05,0,1.6-4.62Z"/><path class="cls-2" d="M86.32,15.56H85.06v2.68c1.45,0,3.2.09,2.41,2.3a3.35,3.35,0,0,1-2.41,2.1v2.68a8.11,8.11,0,0,0,6.12-4.78C92.63,16.44,89.9,15.58,86.32,15.56Z"/><path class="cls-2" d="M4,32,15.61,15.76h4.13V32H16.3l0-3.44H9.77L7.34,32Zm12.34-6.13.13-6.91h0l-4.83,6.91Z"/><path class="cls-2" d="M62.66,32H59.18l5.73-16.21h3.48Z"/><path class="cls-2" d="M97.47,32l5.73-16.21h3.48L101.9,29.28h7.66l-1,2.69Z"/><path class="cls-2" d="M125.61,15.76h10.86l-.95,2.7h-7.39l-1.34,3.79h6.91l-.95,2.69h-6.91l-1.54,4.34h7.63L131,32H119.87Z"/><path class="cls-2" d="M149,32h-3.72l8.67-8.4-2.56-7.81h4.29l1.33,5.5,5.45-5.5h3.72l-8.1,7.79L160.77,32h-4.26l-1.46-6.11Z"/><path class="cls-2" d="M41.18,32,39.55,18.5l-.06.05L34.74,32H31.48l5.74-16.21h5.16L44,28.51l.06,0,4.5-12.71h3.25L46.12,32Z"/><path class="cls-3" d="M.77,11.21,0,12V35.86l.77.77H24.65l.77-.77V12l-.77-.77Zm23.11,1.54V35.09H1.54V12.75Z"/><path class="cls-4" d="M56.84,3.33,55.72,4V43.8l1.12.69,15.9-7.94.42-.69V12l-.42-.69ZM71.62,35.38,57.26,42.55V5.27l14.36,7.19Z"/><path class="cls-3" d="M167.76,11.21H143.88l-.77.77V35.86l.77.77h23.88l.77-.77V12ZM167,12.75V35.09H144.65V12.75Z"/><path class="cls-4" d="M95.8,11.29l-.43.69V35.86l.43.69,15.9,7.94,1.11-.69V4l-1.11-.69Zm15.47-6V42.55L96.91,35.38V12.46Z"/><rect class="cls-5" x="83.51" width="1.54" height="47.83"/><polygon class="cls-1" points="49.26 23.09 49.26 35.23 30.87 38.94 30.87 8.9 49.26 12.62 49.26 15.77 50.8 15.77 50.8 11.99 50.19 11.23 30.25 7.2 29.32 7.96 29.32 39.88 30.25 40.63 50.19 36.62 50.8 35.87 50.8 18.72 49.26 23.09"/></g></g></svg>